<?xml version="1.0" encoding="UTF-8" standalone="no"?>
<svg width="106px" height="114px" viewBox="0 0 106 114" version="1.1" xmlns="http://www.w3.org/2000/svg" xmlns:xlink="http://www.w3.org/1999/xlink" xmlns:sketch="http://www.bohemiancoding.com/sketch/ns">
    <!-- Generator: Sketch Beta 3.1 (8715) - http://www.bohemiancoding.com/sketch -->
    <title>Group</title>
    <desc>Created with Sketch Beta.</desc>
    <defs></defs>
    <g id="Page-1" stroke="none" stroke-width="1" fill="none" fill-rule="evenodd" sketch:type="MSPage">
        <g id="splashScreen" sketch:type="MSLayerGroup" transform="translate(-1436.000000, -550.000000)" fill="#E0E1E2">
            <g id="Group" transform="translate(1437.000000, 551.000000)" sketch:type="MSShapeGroup">
                <path d="M67.2,48.7 L36.7,48.7 C33.4,48.7 30.8,51.3 30.8,54.6 C30.8,57.9 33.4,60.5 36.7,60.5 L67.2,60.5 C70.5,60.5 73.1,57.9 73.1,54.6 C73.1,51.3 70.5,48.7 67.2,48.7 L67.2,48.7 Z" id="Shape"></path>
                <path d="M96.3,-0.5 L7.6,-0.5 C3.2,-0.5 -0.3,3 -0.3,7.4 L-0.3,28.1 C-0.3,31.9 2.3,35 5.9,35.8 L5.9,100.7 C5.9,107.4 11.4,112.9 18.1,112.9 L85.9,112.9 C92.6,112.9 98.1,107.4 98.1,100.7 L98.1,35.8 C101.6,35 104.3,31.9 104.3,28.1 L104.3,7.4 C104.2,3.1 100.7,-0.5 96.3,-0.5 L96.3,-0.5 Z M11.5,11.3 L92.4,11.3 L92.4,24.1 L11.5,24.1 L11.5,11.3 L11.5,11.3 Z M85.9,101.1 L18.1,101.1 C17.9,101.1 17.7,100.9 17.7,100.7 L17.7,36 L86.2,36 L86.2,100.7 C86.2,100.9 86.1,101.1 85.9,101.1 L85.9,101.1 Z" id="Shape"></path>
            </g>
        </g>
    </g>
</svg>